<mxfile host="Electron" agent="Mozilla/5.0 (Windows NT 10.0; Win64; x64) AppleWebKit/537.36 (KHTML, like Gecko) draw.io/27.0.9 Chrome/134.0.6998.205 Electron/35.4.0 Safari/537.36" version="27.0.9">
  <diagram name="Page-1" id="Z_0brI9O7ytwEvt5Hl6u">
    <mxGraphModel dx="1272" dy="563" grid="1" gridSize="10" guides="1" tooltips="1" connect="1" arrows="1" fold="1" page="0" pageScale="1" pageWidth="850" pageHeight="1100" math="0" shadow="0">
      <root>
        <mxCell id="0" />
        <mxCell id="1" parent="0" />
        <mxCell id="9IG0WOJ9TiHFZEhr1ky_-1" value="Producer" style="rounded=0;whiteSpace=wrap;html=1;strokeColor=#0F8B8D;fontColor=#143642;fillColor=#FAE5C7;" vertex="1" parent="1">
          <mxGeometry x="-170" y="162" width="120" height="30" as="geometry" />
        </mxCell>
        <mxCell id="9IG0WOJ9TiHFZEhr1ky_-17" value="" style="shape=ext;double=1;whiteSpace=wrap;html=1;aspect=fixed;strokeColor=#0F8B8D;fontColor=#143642;fillColor=#FAE5C7;" vertex="1" parent="1">
          <mxGeometry x="-22" y="10" width="360" height="360" as="geometry" />
        </mxCell>
        <mxCell id="9IG0WOJ9TiHFZEhr1ky_-2" value="" style="rounded=0;whiteSpace=wrap;html=1;strokeColor=#0F8B8D;fontColor=#143642;fillColor=#FAE5C7;" vertex="1" parent="1">
          <mxGeometry x="60" y="40" width="110" height="130" as="geometry" />
        </mxCell>
        <mxCell id="9IG0WOJ9TiHFZEhr1ky_-3" value="topic A" style="rounded=0;whiteSpace=wrap;html=1;strokeColor=#0F8B8D;fontColor=#143642;fillColor=#FAE5C7;" vertex="1" parent="1">
          <mxGeometry x="80" y="60" width="70" height="20" as="geometry" />
        </mxCell>
        <mxCell id="9IG0WOJ9TiHFZEhr1ky_-4" value="topic B" style="rounded=0;whiteSpace=wrap;html=1;strokeColor=#0F8B8D;fontColor=#143642;fillColor=#FAE5C7;" vertex="1" parent="1">
          <mxGeometry x="80" y="90" width="70" height="20" as="geometry" />
        </mxCell>
        <mxCell id="9IG0WOJ9TiHFZEhr1ky_-7" value="" style="rounded=0;whiteSpace=wrap;html=1;strokeColor=#0F8B8D;fontColor=#143642;fillColor=#FAE5C7;" vertex="1" parent="1">
          <mxGeometry x="193" y="41" width="110" height="130" as="geometry" />
        </mxCell>
        <mxCell id="9IG0WOJ9TiHFZEhr1ky_-8" value="topic A" style="rounded=0;whiteSpace=wrap;html=1;strokeColor=#0F8B8D;fontColor=#143642;fillColor=#FAE5C7;" vertex="1" parent="1">
          <mxGeometry x="214" y="61" width="70" height="20" as="geometry" />
        </mxCell>
        <mxCell id="9IG0WOJ9TiHFZEhr1ky_-9" value="topic B" style="rounded=0;whiteSpace=wrap;html=1;strokeColor=#0F8B8D;fontColor=#143642;fillColor=#FAE5C7;" vertex="1" parent="1">
          <mxGeometry x="214" y="91" width="70" height="20" as="geometry" />
        </mxCell>
        <mxCell id="9IG0WOJ9TiHFZEhr1ky_-10" value="Broker" style="text;html=1;align=center;verticalAlign=middle;whiteSpace=wrap;rounded=0;fontColor=#143642;" vertex="1" parent="1">
          <mxGeometry x="85" y="140" width="60" height="30" as="geometry" />
        </mxCell>
        <mxCell id="9IG0WOJ9TiHFZEhr1ky_-11" value="Broker" style="text;html=1;align=center;verticalAlign=middle;whiteSpace=wrap;rounded=0;fontColor=#143642;" vertex="1" parent="1">
          <mxGeometry x="219" y="140" width="60" height="30" as="geometry" />
        </mxCell>
        <mxCell id="9IG0WOJ9TiHFZEhr1ky_-13" value="consumer" style="rounded=0;whiteSpace=wrap;html=1;strokeColor=#0F8B8D;fontColor=#143642;fillColor=#FAE5C7;" vertex="1" parent="1">
          <mxGeometry x="390" y="132" width="120" height="30" as="geometry" />
        </mxCell>
        <mxCell id="9IG0WOJ9TiHFZEhr1ky_-14" value="consumer" style="rounded=0;whiteSpace=wrap;html=1;strokeColor=#0F8B8D;fontColor=#143642;fillColor=#FAE5C7;" vertex="1" parent="1">
          <mxGeometry x="390" y="167" width="120" height="30" as="geometry" />
        </mxCell>
        <mxCell id="9IG0WOJ9TiHFZEhr1ky_-15" value="Producer" style="rounded=0;whiteSpace=wrap;html=1;strokeColor=#0F8B8D;fontColor=#143642;fillColor=#FAE5C7;" vertex="1" parent="1">
          <mxGeometry x="-170" y="210" width="120" height="30" as="geometry" />
        </mxCell>
        <mxCell id="9IG0WOJ9TiHFZEhr1ky_-18" value="Pub-sub system" style="text;html=1;align=center;verticalAlign=middle;whiteSpace=wrap;rounded=0;fontColor=#143642;fontStyle=1" vertex="1" parent="1">
          <mxGeometry x="110" y="330" width="95" height="30" as="geometry" />
        </mxCell>
        <mxCell id="9IG0WOJ9TiHFZEhr1ky_-19" value="" style="endArrow=classic;html=1;rounded=0;strokeColor=#A8201A;fontColor=#143642;fillColor=#FAE5C7;exitX=1;exitY=0.5;exitDx=0;exitDy=0;entryX=0.003;entryY=0.465;entryDx=0;entryDy=0;entryPerimeter=0;" edge="1" parent="1" source="9IG0WOJ9TiHFZEhr1ky_-1" target="9IG0WOJ9TiHFZEhr1ky_-17">
          <mxGeometry width="50" height="50" relative="1" as="geometry">
            <mxPoint y="160" as="sourcePoint" />
            <mxPoint x="50" y="110" as="targetPoint" />
          </mxGeometry>
        </mxCell>
        <mxCell id="9IG0WOJ9TiHFZEhr1ky_-20" value="" style="endArrow=classic;html=1;rounded=0;strokeColor=#A8201A;fontColor=#143642;fillColor=#FAE5C7;exitX=1;exitY=0.5;exitDx=0;exitDy=0;entryX=-0.003;entryY=0.597;entryDx=0;entryDy=0;entryPerimeter=0;" edge="1" parent="1" source="9IG0WOJ9TiHFZEhr1ky_-15" target="9IG0WOJ9TiHFZEhr1ky_-17">
          <mxGeometry width="50" height="50" relative="1" as="geometry">
            <mxPoint x="-20" y="300" as="sourcePoint" />
            <mxPoint x="30" y="250" as="targetPoint" />
          </mxGeometry>
        </mxCell>
        <mxCell id="9IG0WOJ9TiHFZEhr1ky_-21" value="" style="endArrow=classic;html=1;rounded=0;strokeColor=#A8201A;fontColor=#143642;fillColor=#FAE5C7;exitX=0.994;exitY=0.381;exitDx=0;exitDy=0;exitPerimeter=0;entryX=0;entryY=0.5;entryDx=0;entryDy=0;" edge="1" parent="1" source="9IG0WOJ9TiHFZEhr1ky_-17" target="9IG0WOJ9TiHFZEhr1ky_-13">
          <mxGeometry width="50" height="50" relative="1" as="geometry">
            <mxPoint x="550" y="320" as="sourcePoint" />
            <mxPoint x="600" y="270" as="targetPoint" />
          </mxGeometry>
        </mxCell>
        <mxCell id="9IG0WOJ9TiHFZEhr1ky_-23" value="" style="endArrow=classic;html=1;rounded=0;strokeColor=#A8201A;fontColor=#143642;fillColor=#FAE5C7;entryX=0;entryY=0.5;entryDx=0;entryDy=0;exitX=0.992;exitY=0.478;exitDx=0;exitDy=0;exitPerimeter=0;" edge="1" parent="1" source="9IG0WOJ9TiHFZEhr1ky_-17" target="9IG0WOJ9TiHFZEhr1ky_-14">
          <mxGeometry width="50" height="50" relative="1" as="geometry">
            <mxPoint x="400" y="270" as="sourcePoint" />
            <mxPoint x="450" y="220" as="targetPoint" />
          </mxGeometry>
        </mxCell>
        <mxCell id="9IG0WOJ9TiHFZEhr1ky_-25" value="cluster-manager" style="rounded=0;whiteSpace=wrap;html=1;strokeColor=#0F8B8D;fontColor=#143642;fillColor=#FAE5C7;" vertex="1" parent="1">
          <mxGeometry x="60" y="190" width="110" height="40" as="geometry" />
        </mxCell>
        <mxCell id="9IG0WOJ9TiHFZEhr1ky_-26" value="consumer-manager" style="rounded=0;whiteSpace=wrap;html=1;strokeColor=#0F8B8D;fontColor=#143642;fillColor=#FAE5C7;" vertex="1" parent="1">
          <mxGeometry x="193" y="190" width="120" height="40" as="geometry" />
        </mxCell>
        <mxCell id="9IG0WOJ9TiHFZEhr1ky_-27" value="relational db" style="image;aspect=fixed;html=1;points=[];align=center;fontSize=12;image=img/lib/azure2/databases/Azure_Database_PostgreSQL_Server.svg;strokeColor=#0F8B8D;fontColor=#143642;fillColor=#FAE5C7;" vertex="1" parent="1">
          <mxGeometry x="390" y="230" width="45" height="60" as="geometry" />
        </mxCell>
        <mxCell id="9IG0WOJ9TiHFZEhr1ky_-28" value="key-value store" style="image;sketch=0;aspect=fixed;html=1;points=[];align=center;fontSize=12;image=img/lib/mscae/Cache_Redis_Product.svg;strokeColor=#0F8B8D;fontColor=#143642;fillColor=#FAE5C7;" vertex="1" parent="1">
          <mxGeometry x="390" y="330" width="50" height="42" as="geometry" />
        </mxCell>
        <mxCell id="9IG0WOJ9TiHFZEhr1ky_-29" value="" style="endArrow=classic;html=1;rounded=0;strokeColor=#A8201A;fontColor=#143642;fillColor=#FAE5C7;exitX=0.5;exitY=1;exitDx=0;exitDy=0;entryX=-0.022;entryY=0.517;entryDx=0;entryDy=0;entryPerimeter=0;" edge="1" parent="1" source="9IG0WOJ9TiHFZEhr1ky_-26" target="9IG0WOJ9TiHFZEhr1ky_-27">
          <mxGeometry width="50" height="50" relative="1" as="geometry">
            <mxPoint x="360" y="400" as="sourcePoint" />
            <mxPoint x="410" y="350" as="targetPoint" />
            <Array as="points">
              <mxPoint x="253" y="261" />
            </Array>
          </mxGeometry>
        </mxCell>
        <mxCell id="9IG0WOJ9TiHFZEhr1ky_-30" value="" style="endArrow=classic;html=1;rounded=0;strokeColor=#A8201A;fontColor=#143642;fillColor=#FAE5C7;entryX=0;entryY=0.524;entryDx=0;entryDy=0;entryPerimeter=0;" edge="1" parent="1" target="9IG0WOJ9TiHFZEhr1ky_-28">
          <mxGeometry width="50" height="50" relative="1" as="geometry">
            <mxPoint x="250" y="230" as="sourcePoint" />
            <mxPoint x="360" y="370" as="targetPoint" />
            <Array as="points">
              <mxPoint x="250" y="352" />
            </Array>
          </mxGeometry>
        </mxCell>
        <mxCell id="9IG0WOJ9TiHFZEhr1ky_-32" value="" style="endArrow=classic;html=1;rounded=0;strokeColor=#A8201A;fontColor=#143642;fillColor=#FAE5C7;exitX=0.5;exitY=1;exitDx=0;exitDy=0;entryX=0.25;entryY=1;entryDx=0;entryDy=0;" edge="1" parent="1" source="9IG0WOJ9TiHFZEhr1ky_-25" target="9IG0WOJ9TiHFZEhr1ky_-26">
          <mxGeometry width="50" height="50" relative="1" as="geometry">
            <mxPoint x="120" y="480" as="sourcePoint" />
            <mxPoint x="170" y="430" as="targetPoint" />
            <Array as="points">
              <mxPoint x="115" y="260" />
              <mxPoint x="223" y="260" />
            </Array>
          </mxGeometry>
        </mxCell>
        <mxCell id="9IG0WOJ9TiHFZEhr1ky_-33" value="send msg" style="text;html=1;align=center;verticalAlign=middle;whiteSpace=wrap;rounded=0;fontColor=#143642;" vertex="1" parent="1">
          <mxGeometry x="-82" y="130" width="60" height="30" as="geometry" />
        </mxCell>
        <mxCell id="9IG0WOJ9TiHFZEhr1ky_-34" value="consume msg" style="text;html=1;align=center;verticalAlign=middle;whiteSpace=wrap;rounded=0;fontColor=#143642;" vertex="1" parent="1">
          <mxGeometry x="338" y="109" width="90" height="30" as="geometry" />
        </mxCell>
        <mxCell id="9IG0WOJ9TiHFZEhr1ky_-35" value="" style="endArrow=classic;startArrow=classic;html=1;rounded=0;strokeColor=#A8201A;fontColor=#143642;fillColor=#FAE5C7;exitX=1;exitY=0.5;exitDx=0;exitDy=0;entryX=0.5;entryY=1;entryDx=0;entryDy=0;" edge="1" parent="1" source="9IG0WOJ9TiHFZEhr1ky_-26" target="9IG0WOJ9TiHFZEhr1ky_-14">
          <mxGeometry width="50" height="50" relative="1" as="geometry">
            <mxPoint x="420" y="230" as="sourcePoint" />
            <mxPoint x="470" y="180" as="targetPoint" />
            <Array as="points">
              <mxPoint x="450" y="210" />
            </Array>
          </mxGeometry>
        </mxCell>
        <mxCell id="9IG0WOJ9TiHFZEhr1ky_-36" value="" style="swimlane;startSize=0;strokeColor=#0F8B8D;fontColor=#143642;fillColor=#FAE5C7;" vertex="1" parent="1">
          <mxGeometry x="50" y="20" width="270" height="160" as="geometry" />
        </mxCell>
        <mxCell id="9IG0WOJ9TiHFZEhr1ky_-37" value="Cluster of brokers" style="text;html=1;align=center;verticalAlign=middle;whiteSpace=wrap;rounded=0;fontColor=#143642;" vertex="1" parent="1">
          <mxGeometry x="130" y="15" width="112" height="30" as="geometry" />
        </mxCell>
        <mxCell id="9IG0WOJ9TiHFZEhr1ky_-41" value="" style="endArrow=classic;html=1;rounded=0;strokeColor=#A8201A;fontColor=#143642;fillColor=#FAE5C7;entryX=0.25;entryY=1;entryDx=0;entryDy=0;exitX=0.5;exitY=0;exitDx=0;exitDy=0;" edge="1" parent="1" source="9IG0WOJ9TiHFZEhr1ky_-25" target="9IG0WOJ9TiHFZEhr1ky_-36">
          <mxGeometry width="50" height="50" relative="1" as="geometry">
            <mxPoint x="-20" y="290" as="sourcePoint" />
            <mxPoint x="30" y="240" as="targetPoint" />
          </mxGeometry>
        </mxCell>
        <mxCell id="9IG0WOJ9TiHFZEhr1ky_-42" value="broker n topic registry" style="text;html=1;align=center;verticalAlign=middle;whiteSpace=wrap;rounded=0;fontColor=#143642;" vertex="1" parent="1">
          <mxGeometry x="-10" y="230" width="120" height="30" as="geometry" />
        </mxCell>
        <mxCell id="9IG0WOJ9TiHFZEhr1ky_-45" value="replication" style="text;html=1;align=center;verticalAlign=middle;whiteSpace=wrap;rounded=0;fontColor=#143642;" vertex="1" parent="1">
          <mxGeometry x="17.5" y="260" width="120" height="30" as="geometry" />
        </mxCell>
        <mxCell id="9IG0WOJ9TiHFZEhr1ky_-46" value="authrorization" style="text;html=1;align=center;verticalAlign=middle;whiteSpace=wrap;rounded=0;fontColor=#143642;" vertex="1" parent="1">
          <mxGeometry x="10" y="290" width="120" height="30" as="geometry" />
        </mxCell>
      </root>
    </mxGraphModel>
  </diagram>
</mxfile>
